<svg width="72" height="72" viewBox="0 0 72 72" fill="none" xmlns="http://www.w3.org/2000/svg">
<rect width="72" height="72" rx="16" fill="white"/>
<path d="M61 13.0675V49.542C61 49.542 60.8438 55.7899 52.27 55.7899C42.8825 55.7899 42.25 50.7122 42.25 49.5379C42.25 47.0266 43.4275 44.2893 52.25 44.2893C56.3112 44.2893 57.25 43.4192 57.25 41.2018C57.25 41.2018 57.25 25.0892 57.25 23.7168C57.25 22.3445 57.15 21.8485 55.3213 22.1934C52.175 22.7863 31.625 26.5001 30.805 26.6636C29.985 26.8272 29.75 27.2326 29.75 28.4371C29.75 30.6535 29.75 52.4003 29.75 54.7479C29.75 57.0956 27.5725 61 19.75 61C11.9275 61 11 56.834 11 54.7479C11 51.65 13.8125 49.6515 19.7587 49.6515C25.2975 49.6515 26 48.35 26 46.4118C26 39.5002 26 19.2779 26 18.2775C26 17.2772 26.4887 16.6009 27.7075 16.3769C29.7462 16.0039 58.6825 11.0304 58.6825 11.0304C58.6825 11.0304 61 10.5896 61 13.0675Z" fill="black"/>
</svg>
