<svg width="72" height="72" viewBox="0 0 72 72" fill="none" xmlns="http://www.w3.org/2000/svg">
<rect width="72" height="72" rx="16" fill="white"/>
<path d="M39.1358 11C27.4126 11 17.8776 19.1667 17.3149 29.4444L11.3126 36.5556C11.1384 36.7619 11.0324 37.0073 11.0063 37.2642C10.9802 37.521 11.0352 37.7793 11.165 38.01C11.2948 38.2407 11.4944 38.4347 11.7413 38.5703C11.9883 38.706 12.2728 38.7778 12.5631 38.7778H17.2524V47.1111C17.2524 50.1667 20.066 52.6667 23.5048 52.6667H26.631V61H48.5144V48C52.9983 46.1058 56.6239 42.913 58.7956 38.946C60.9674 34.979 61.5562 30.4736 60.4653 26.1699C59.3744 21.8662 56.6687 18.0202 52.7927 15.2634C48.9166 12.5067 44.1006 11.0032 39.1358 11ZM48.5144 30.4444C48.5144 30.8056 48.4831 31.1667 48.4519 31.5278L51.0466 33.3611C51.2967 33.5278 51.3593 33.8056 51.2029 34.0556L48.702 37.9167C48.5457 38.1667 48.2018 38.25 47.9517 38.1667L44.8568 37.0556C44.2003 37.5 43.5125 37.8611 42.7622 38.1389L42.262 41.0833C42.2307 41.3611 41.9494 41.5556 41.6368 41.5556H36.6348C36.3222 41.5556 36.0721 41.3611 36.0096 41.0833L35.5407 38.1389C34.7591 37.8611 34.0714 37.5 33.4149 37.0556L30.3199 38.1667C30.0386 38.25 29.6947 38.1667 29.5384 37.9167L27.0374 34.0556C26.9619 33.9432 26.9361 33.8099 26.965 33.6816C26.9939 33.5533 27.0754 33.439 27.1937 33.3611L29.8197 31.5278C29.7885 31.1667 29.7572 30.8056 29.7572 30.4444C29.7572 30.0833 29.8197 29.6944 29.8823 29.3611L27.225 27.5278C26.9749 27.3611 26.9124 27.0833 27.0687 26.8056L29.5696 22.9722C29.7259 22.7222 30.0386 22.6389 30.3199 22.7222L33.4461 23.8333C34.0714 23.4167 34.7904 23.0278 35.5407 22.75L36.0096 19.8056C36.0721 19.5278 36.3222 19.3333 36.6348 19.3333H41.6368C41.9494 19.3333 42.1995 19.5278 42.262 19.8056L42.7309 22.75C43.4812 23.0278 44.169 23.3889 44.8255 23.8333L47.9517 22.7222C48.233 22.6389 48.5769 22.7222 48.702 22.9722L51.2029 26.8056C51.2804 26.9222 51.3073 27.0599 51.2785 27.1929C51.2498 27.3259 51.1673 27.445 51.0466 27.5278L48.3894 29.3611C48.4831 29.6944 48.5144 30.0556 48.5144 30.4444Z" fill="black"/>
</svg>
