<svg width="187" height="176" viewBox="0 0 187 176" fill="none" xmlns="http://www.w3.org/2000/svg">
<rect x="10.3529" width="176" height="176" fill="white"/>
<path d="M81.098 147.922V99.4902C81.098 98.8141 80.8295 98.1658 80.3514 97.6877C79.8734 97.2097 79.2251 96.9412 78.549 96.9412H32.6667C31.9906 96.9412 31.3423 97.2097 30.8642 97.6877C30.3862 98.1658 30.1176 98.8141 30.1176 99.4902V147.922C30.1176 148.598 30.3862 149.246 30.8642 149.724C31.3423 150.202 31.9906 150.471 32.6667 150.471H78.549C79.2251 150.471 79.8734 150.202 80.3514 149.724C80.8295 149.246 81.098 148.598 81.098 147.922ZM32.6667 99.4902H78.549V132.105L70.5323 124.088C70.2936 123.851 69.9705 123.718 69.6338 123.718C69.2971 123.718 68.9741 123.851 68.7353 124.088L60.7059 132.105L51.5167 122.916C51.2779 122.678 50.9548 122.545 50.6181 122.545C50.2814 122.545 49.9584 122.678 49.7196 122.916L32.6667 139.943V99.4902ZM32.6667 147.922V143.55L50.6118 125.605L72.9284 147.922H32.6667ZM62.5029 133.902L69.6274 126.777L78.549 135.699V147.922H76.5225L62.5029 133.902Z" fill="black"/>
<path d="M88.7452 104.588H83.6471V107.137H88.7452V155.569H42.8628V153.02H40.3138V155.569C40.3138 156.245 40.5823 156.893 41.0604 157.371C41.5384 157.849 42.1868 158.118 42.8628 158.118H88.7452C89.4212 158.118 90.0695 157.849 90.5476 157.371C91.0256 156.893 91.2942 156.245 91.2942 155.569V107.137C91.2942 106.461 91.0256 105.813 90.5476 105.335C90.0695 104.857 89.4212 104.588 88.7452 104.588Z" fill="black"/>
<path d="M58.1569 119.882C59.6693 119.882 61.1478 119.434 62.4053 118.594C63.6629 117.753 64.643 116.559 65.2218 115.162C65.8006 113.764 65.952 112.227 65.657 110.743C65.3619 109.26 64.6336 107.897 63.5641 106.828C62.4947 105.759 61.1321 105.03 59.6487 104.735C58.1653 104.44 56.6278 104.592 55.2305 105.17C53.8331 105.749 52.6388 106.729 51.7986 107.987C50.9583 109.244 50.5098 110.723 50.5098 112.235C50.5098 114.263 51.3155 116.208 52.7496 117.643C54.1837 119.077 56.1287 119.882 58.1569 119.882ZM58.1569 107.137C59.1651 107.137 60.1508 107.436 60.9892 107.996C61.8275 108.557 62.481 109.353 62.8668 110.284C63.2527 111.216 63.3536 112.241 63.1569 113.23C62.9602 114.219 62.4747 115.127 61.7617 115.84C61.0487 116.553 60.1404 117.039 59.1514 117.235C58.1625 117.432 57.1375 117.331 56.2059 116.945C55.2744 116.559 54.4782 115.906 53.918 115.068C53.3578 114.229 53.0588 113.244 53.0588 112.235C53.0588 110.883 53.5959 109.587 54.552 108.63C55.5081 107.674 56.8048 107.137 58.1569 107.137Z" fill="black"/>
<path d="M127.676 59.7353C129.789 59.7353 131.499 58.0326 131.499 55.9118C131.499 53.7909 129.789 52.0882 127.676 52.0882C125.55 52.0882 123.85 53.7909 123.85 55.9118C123.85 58.0326 125.55 59.7353 127.676 59.7353ZM108.451 59.7353C110.578 59.7353 112.277 58.0326 112.277 55.9118C112.277 53.7909 110.578 52.0882 108.451 52.0882C106.339 52.0882 104.629 53.7909 104.629 55.9118C104.629 58.0326 106.444 59.7353 108.451 59.7353ZM128.154 68.4099C125.669 71.397 122.001 73.1176 118.118 73.1176C114.234 73.1176 110.565 71.415 108.076 68.4123C107.063 67.1876 105.255 67.0382 104.039 68.0389C102.823 69.0551 102.668 70.8594 103.672 72.0781C107.246 76.3796 112.527 78.8565 118.118 78.8565C123.708 78.8565 128.984 76.3796 132.563 72.0781C133.591 70.8689 133.417 69.0611 132.202 68.0455C130.986 67.0358 129.17 67.1912 128.154 68.4099ZM118.118 31.0588C101.222 31.0588 87.5294 44.7518 87.5294 61.647C87.5294 78.5423 101.222 92.2353 118.118 92.2353C135.013 92.2353 148.706 78.5423 148.706 61.647C148.706 44.7518 135.013 31.0588 118.118 31.0588ZM118.118 86.5C104.413 86.5 93.2647 75.3508 93.2647 61.647C93.2647 47.9433 104.413 36.7941 118.118 36.7941C131.823 36.7941 142.971 47.9433 142.971 61.647C142.971 75.3508 131.823 86.5 118.118 86.5Z" fill="black"/>
</svg>
