<svg width="72" height="72" viewBox="0 0 72 72" fill="none" xmlns="http://www.w3.org/2000/svg">
<rect width="72" height="72" rx="16" fill="white"/>
<path d="M43.8125 34.4375C45.5391 34.4375 46.9365 33.0459 46.9365 31.3125C46.9365 29.5791 45.5391 28.1875 43.8125 28.1875C42.0742 28.1875 40.6855 29.5791 40.6855 31.3125C40.6855 33.0459 42.0742 34.4375 43.8125 34.4375ZM28.0996 34.4375C29.8379 34.4375 31.2266 33.0459 31.2266 31.3125C31.2266 29.5791 29.8379 28.1875 28.0996 28.1875C26.373 28.1875 24.9756 29.5791 24.9756 31.3125C24.9756 33.0459 26.459 34.4375 28.0996 34.4375ZM44.2031 41.5273C42.1719 43.9688 39.1738 45.375 36 45.375C32.8262 45.375 29.8271 43.9834 27.793 41.5293C26.9651 40.5283 25.4873 40.4062 24.4932 41.2241C23.5 42.0547 23.373 43.5293 24.1934 44.5254C27.1143 48.041 31.4307 50.0654 36 50.0654C40.5693 50.0654 44.8809 48.041 47.8066 44.5254C48.6463 43.5371 48.5044 42.0596 47.511 41.2295C46.5176 40.4043 45.0332 40.5312 44.2031 41.5273ZM36 11C22.1914 11 11 22.1914 11 36C11 49.8086 22.1914 61 36 61C49.8086 61 61 49.8086 61 36C61 22.1914 49.8086 11 36 11ZM36 56.3125C24.7988 56.3125 15.6875 47.2002 15.6875 36C15.6875 24.7998 24.7988 15.6875 36 15.6875C47.2012 15.6875 56.3125 24.7998 56.3125 36C56.3125 47.2002 47.2012 56.3125 36 56.3125Z" fill="black"/>
</svg>
