<svg width="50" height="50" viewBox="0 0 50 50" fill="none" xmlns="http://www.w3.org/2000/svg">
<path d="M25 27.3438C21.5469 27.3438 18.7441 30.1514 18.7441 33.5938C18.7441 37.0361 21.5469 39.8438 25 39.8438C28.4531 39.8438 31.2559 37.0361 31.2559 33.5938C31.2559 30.1514 28.457 27.3438 25 27.3438ZM20.3125 20.3125C20.3125 18.5791 18.917 17.1875 17.1787 17.1875C15.4521 17.1875 14.0566 18.5791 14.0566 20.3125C14.0566 22.0459 15.4521 23.4375 17.1787 23.4375C18.9258 23.4375 20.3125 22.0508 20.3125 20.3125ZM32.8125 17.1875C31.0742 17.1875 29.6807 18.5791 29.6807 20.3125C29.6807 22.0459 31.0742 23.4375 32.8125 23.4375C34.5391 23.4375 35.9326 22.0459 35.9326 20.3125C35.9326 18.5791 34.541 17.1875 32.8125 17.1875ZM25 0C11.1914 0 0 11.1914 0 25C0 38.8086 11.1914 50 25 50C38.8086 50 50 38.8086 50 25C50 11.1914 38.8086 0 25 0ZM25 45.3125C13.7988 45.3125 4.6875 36.2002 4.6875 25C4.6875 13.7998 13.7988 4.6875 25 4.6875C36.2012 4.6875 45.3125 13.7998 45.3125 25C45.3125 36.2002 36.2012 45.3125 25 45.3125Z" fill="black"/>
</svg>
