<svg width="50" height="50" viewBox="0 0 50 50" fill="none" xmlns="http://www.w3.org/2000/svg">
<path d="M32.8125 23.4375C34.5391 23.4375 35.9365 22.0459 35.9365 20.3125C35.9365 18.5791 34.5391 17.1875 32.8125 17.1875C31.0742 17.1875 29.6855 18.5791 29.6855 20.3125C29.6855 22.0459 31.0742 23.4375 32.8125 23.4375ZM17.0996 23.4375C18.8379 23.4375 20.2266 22.0459 20.2266 20.3125C20.2266 18.5791 18.8379 17.1875 17.0996 17.1875C15.373 17.1875 13.9756 18.5791 13.9756 20.3125C13.9756 22.0459 15.459 23.4375 17.0996 23.4375ZM33.2031 30.5273C31.1719 32.9688 28.1738 34.375 25 34.375C21.8262 34.375 18.8271 32.9834 16.793 30.5293C15.9651 29.5283 14.4873 29.4062 13.4932 30.2241C12.5 31.0547 12.373 32.5293 13.1934 33.5254C16.1143 37.041 20.4307 39.0654 25 39.0654C29.5693 39.0654 33.8809 37.041 36.8066 33.5254C37.6463 32.5371 37.5044 31.0596 36.511 30.2295C35.5176 29.4043 34.0332 29.5312 33.2031 30.5273ZM25 0C11.1914 0 0 11.1914 0 25C0 38.8086 11.1914 50 25 50C38.8086 50 50 38.8086 50 25C50 11.1914 38.8086 0 25 0ZM25 45.3125C13.7988 45.3125 4.6875 36.2002 4.6875 25C4.6875 13.7998 13.7988 4.6875 25 4.6875C36.2012 4.6875 45.3125 13.7998 45.3125 25C45.3125 36.2002 36.2012 45.3125 25 45.3125Z" fill="black"/>
</svg>
