<svg width="93" height="93" viewBox="0 0 93 93" fill="none" xmlns="http://www.w3.org/2000/svg">
<path d="M81.0321 0.550781V10.7706H69.5347V0.550781H23.5454V10.7706H12.0481V0.550781H0.550781V92.5294H12.0481V82.3095H23.5454V92.5294H69.5347V82.3095H81.0321V92.5294H92.5294V0.550781H81.0321ZM23.5454 72.0897H12.0481V61.8699H23.5454V72.0897ZM23.5454 51.65H12.0481V41.4302H23.5454V51.65ZM23.5454 31.2103H12.0481V20.9905H23.5454V31.2103ZM81.0321 72.0897H69.5347V61.8699H81.0321V72.0897ZM81.0321 51.65H69.5347V41.4302H81.0321V51.65ZM81.0321 31.2103H69.5347V20.9905H81.0321V31.2103Z" fill="black"/>
</svg>
