<svg width="50" height="50" viewBox="0 0 50 50" fill="none" xmlns="http://www.w3.org/2000/svg">
<path d="M50 2.06748V38.542C50 38.542 49.8438 44.7899 41.27 44.7899C31.8825 44.7899 31.25 39.7122 31.25 38.5379C31.25 36.0266 32.4275 33.2893 41.25 33.2893C45.3112 33.2893 46.25 32.4192 46.25 30.2018C46.25 30.2018 46.25 14.0892 46.25 12.7168C46.25 11.3445 46.15 10.8485 44.3213 11.1934C41.175 11.7863 20.625 15.5001 19.805 15.6636C18.985 15.8272 18.75 16.2326 18.75 17.4371C18.75 19.6535 18.75 41.4003 18.75 43.7479C18.75 46.0956 16.5725 50 8.75 50C0.9275 50 0 45.834 0 43.7479C0 40.65 2.8125 38.6515 8.75875 38.6515C14.2975 38.6515 15 37.35 15 35.4118C15 28.5002 15 8.27787 15 7.27754C15 6.27721 15.4887 5.60094 16.7075 5.37691C18.7462 5.00387 47.6825 0.0303503 47.6825 0.0303503C47.6825 0.0303503 50 -0.41042 50 2.06748Z" fill="black"/>
</svg>
