<svg width="50" height="50" viewBox="0 0 50 50" fill="none" xmlns="http://www.w3.org/2000/svg">
<path d="M49.3065 5.38274L44.8336 0.723182C44.3718 0.241417 43.7645 0 43.1583 0C42.5521 0 41.9459 0.240348 41.484 0.722114L37.9061 4.44378L45.7286 12.59L49.3065 8.8694C50.2312 7.90587 50.2312 6.34307 49.3065 5.38274Z" fill="black"/>
<path d="M14.6803 28.6272L22.5038 36.7745L44.0543 14.3355L36.2308 6.18823L14.6803 28.6272Z" fill="black"/>
<path d="M12.9917 30.3704L11.3215 40.2535L20.8152 38.5166L12.9917 30.3704Z" fill="black"/>
<path d="M34.619 44.6578H5.12112V13.8867H25.9384L31.0687 8.54565H3.31167C1.48995 8.54565 0 10.0999 0 12.0003V46.5453C0 48.4457 1.48995 49.9999 3.31167 49.9999H36.4274C38.2491 49.9999 39.7391 48.4457 39.7391 46.5453V21.8471L34.619 27.1786V44.6578Z" fill="black"/>
</svg>
