<svg width="50" height="50" viewBox="0 0 50 50" fill="none" xmlns="http://www.w3.org/2000/svg">
<path d="M41.6667 41.6667V2.08333C41.6667 1.5308 41.4472 1.0009 41.0565 0.610194C40.6658 0.219493 40.1359 0 39.5833 0L2.08333 0C1.5308 0 1.0009 0.219493 0.610194 0.610194C0.219493 1.0009 0 1.5308 0 2.08333L0 41.6667C0 42.2192 0.219493 42.7491 0.610194 43.1398C1.0009 43.5305 1.5308 43.75 2.08333 43.75H39.5833C40.1359 43.75 40.6658 43.5305 41.0565 43.1398C41.4472 42.7491 41.6667 42.2192 41.6667 41.6667ZM2.08333 2.08333H39.5833V28.7396L33.0312 22.1875C32.8361 21.9935 32.5721 21.8846 32.2969 21.8846C32.0217 21.8846 31.7577 21.9935 31.5625 22.1875L25 28.7396L17.4896 21.2292C17.2944 21.0352 17.0304 20.9263 16.7552 20.9263C16.48 20.9263 16.216 21.0352 16.0208 21.2292L2.08333 35.1458V2.08333ZM2.08333 41.6667V38.0938L16.75 23.4271L34.9896 41.6667H2.08333ZM26.4688 30.2083L32.2917 24.3854L39.5833 31.6771V41.6667H37.9271L26.4688 30.2083Z" fill="black"/>
<path d="M47.9167 6.25H43.75V8.33333H47.9167V47.9167H10.4167V45.8333H8.33337V47.9167C8.33337 48.4692 8.55287 48.9991 8.94357 49.3898C9.33427 49.7805 9.86417 50 10.4167 50H47.9167C48.4692 50 48.9991 49.7805 49.3899 49.3898C49.7806 48.9991 50 48.4692 50 47.9167V8.33333C50 7.7808 49.7806 7.25089 49.3899 6.86019C48.9991 6.46949 48.4692 6.25 47.9167 6.25Z" fill="black"/>
<path d="M22.9166 18.75C24.1528 18.75 25.3611 18.3834 26.3889 17.6967C27.4167 17.0099 28.2178 16.0338 28.6909 14.8918C29.1639 13.7497 29.2877 12.4931 29.0465 11.2807C28.8054 10.0683 28.2101 8.95466 27.336 8.08059C26.462 7.20651 25.3483 6.61125 24.1359 6.37009C22.9236 6.12894 21.6669 6.25271 20.5249 6.72576C19.3828 7.1988 18.4067 7.99988 17.7199 9.02769C17.0332 10.0555 16.6666 11.2639 16.6666 12.5C16.6666 14.1576 17.3251 15.7473 18.4972 16.9194C19.6693 18.0915 21.259 18.75 22.9166 18.75ZM22.9166 8.33334C23.7407 8.33334 24.5463 8.57771 25.2315 9.03555C25.9167 9.49339 26.4508 10.1441 26.7661 10.9055C27.0815 11.6668 27.164 12.5046 27.0032 13.3129C26.8425 14.1211 26.4456 14.8636 25.8629 15.4463C25.2802 16.029 24.5378 16.4258 23.7295 16.5866C22.9212 16.7474 22.0835 16.6649 21.3221 16.3495C20.5608 16.0341 19.91 15.5001 19.4522 14.8149C18.9943 14.1297 18.75 13.3241 18.75 12.5C18.75 11.3949 19.1889 10.3351 19.9703 9.55372C20.7517 8.77232 21.8116 8.33334 22.9166 8.33334Z" fill="black"/>
</svg>
