<svg width="93" height="93" viewBox="0 0 93 93" fill="none" xmlns="http://www.w3.org/2000/svg">
<path d="M82.9483 0.550781H10.1319C7.59082 0.550781 5.15383 1.56022 3.35702 3.35702C1.56022 5.15383 0.550781 7.59082 0.550781 10.1319L0.550781 82.9483C0.550781 84.2065 0.798604 85.4524 1.2801 86.6148C1.7616 87.7773 2.46733 88.8335 3.35702 89.7232C4.24671 90.6128 5.30292 91.3186 6.46536 91.8001C7.62779 92.2816 8.87368 92.5294 10.1319 92.5294H82.9483C84.2065 92.5294 85.4524 92.2816 86.6148 91.8001C87.7773 91.3186 88.8335 90.6128 89.7232 89.7232C90.6128 88.8335 91.3186 87.7773 91.8001 86.6148C92.2816 85.4524 92.5294 84.2065 92.5294 82.9483V10.1319C92.5294 8.87368 92.2816 7.62779 91.8001 6.46536C91.3186 5.30292 90.6128 4.24671 89.7232 3.35702C88.8335 2.46733 87.7773 1.7616 86.6148 1.2801C85.4524 0.798604 84.2065 0.550781 82.9483 0.550781ZM10.1319 88.6969C8.60725 88.6969 7.14505 88.0913 6.06697 87.0132C4.98888 85.9351 4.38322 84.4729 4.38322 82.9483V78.0811L35.0428 47.4215L76.414 88.6969H10.1319ZM88.6969 82.9483C88.6969 84.4729 88.0913 85.9351 87.0132 87.0132C85.9351 88.0913 84.4729 88.6969 82.9483 88.6969H81.8177L55.2589 62.1381L69.803 47.594L88.6969 66.4879V82.9483ZM88.6969 61.0842L71.1444 43.5316C70.7853 43.1747 70.2997 42.9744 69.7934 42.9744C69.2872 42.9744 68.8015 43.1747 68.4425 43.5316L52.557 59.4171L36.4416 43.3017C36.0826 42.9448 35.5969 42.7444 35.0907 42.7444C34.5844 42.7444 34.0988 42.9448 33.7397 43.3017L4.38322 72.6582V10.1319C4.38322 8.60725 4.98888 7.14505 6.06697 6.06697C7.14505 4.98888 8.60725 4.38322 10.1319 4.38322H82.9483C84.4729 4.38322 85.9351 4.98888 87.0132 6.06697C88.0913 7.14505 88.6969 8.60725 88.6969 10.1319V61.0842Z" fill="black"/>
<path d="M48.4563 13.9644C46.1824 13.9644 43.9595 14.6387 42.0687 15.902C40.178 17.1653 38.7044 18.961 37.8342 21.0618C36.964 23.1627 36.7363 25.4744 37.1799 27.7047C37.6235 29.935 38.7185 31.9836 40.3265 33.5915C41.9344 35.1994 43.983 36.2945 46.2133 36.7381C48.4436 37.1817 50.7553 36.954 52.8562 36.0838C54.957 35.2136 56.7526 33.74 58.016 31.8493C59.2793 29.9585 59.9536 27.7356 59.9536 25.4617C59.9536 22.4124 58.7423 19.488 56.5862 17.3318C54.43 15.1757 51.5056 13.9644 48.4563 13.9644ZM48.4563 33.1266C46.9403 33.1266 45.4584 32.677 44.1979 31.8348C42.9375 30.9926 41.955 29.7955 41.3749 28.3949C40.7947 26.9943 40.643 25.4532 40.9387 23.9663C41.2345 22.4795 41.9645 21.1137 43.0364 20.0418C44.1084 18.9698 45.4741 18.2398 46.961 17.9441C48.4478 17.6483 49.989 17.8001 51.3895 18.3803C52.7901 18.9604 53.9872 19.9428 54.8294 21.2033C55.6717 22.4638 56.1212 23.9457 56.1212 25.4617C56.1212 27.4945 55.3137 29.4441 53.8762 30.8816C52.4388 32.319 50.4892 33.1266 48.4563 33.1266Z" fill="black"/>
</svg>
