<svg width="50" height="50" viewBox="0 0 50 50" fill="none" xmlns="http://www.w3.org/2000/svg">
<mask id="path-1-inside-1_2352_517" fill="white">
<path d="M12.9059 2.47933C15.036 0.863283 17.6383 -0.00746364 20.312 0.00126961C21.2351 -0.0185666 22.1483 0.194317 22.9675 0.620292C23.7867 1.04627 24.4855 1.67162 24.9994 2.43871C25.5133 1.67162 26.212 1.04627 27.0312 0.620292C27.8504 0.194317 28.7636 -0.0185666 29.6867 0.00126961C32.3604 -0.00746364 34.9628 0.863283 37.0928 2.47933C38.7334 3.7543 39.999 5.51988 40.4459 7.6542C41.4708 7.73232 42.4083 8.15731 43.1958 8.79792C44.3895 9.76665 45.2582 11.2197 45.8051 12.7572C46.6613 15.1478 46.8926 18.1946 46.0051 20.7882C46.2301 20.8945 46.4509 21.0195 46.6676 21.1632C47.5269 21.7351 48.18 22.5538 48.6613 23.5194C49.6081 25.41 49.9987 28.0474 49.9987 31.2505C49.9987 34.816 48.6394 37.2097 46.9144 38.6878C45.9594 39.5039 44.8341 40.0964 43.6208 40.4221C43.3083 42.1658 42.4333 44.1845 41.0615 45.897C39.2803 48.1313 36.5178 50 32.8117 50C29.8742 50 27.5368 48.375 26.0181 46.7813C25.6535 46.4021 25.3133 46.0003 24.9994 45.5782C24.6854 46.0003 24.3452 46.4021 23.9806 46.7813C22.4619 48.375 20.1276 50 17.1871 50C13.4809 50 10.7216 48.1313 8.93727 45.897C7.65562 44.3048 6.77761 42.4266 6.37796 40.4221C5.16465 40.0964 4.03938 39.5039 3.0843 38.6878C1.35934 37.2097 0 34.8129 0 31.2505C0 28.0474 0.39374 25.4069 1.33747 23.5194C1.78224 22.5709 2.47008 21.7569 3.33117 21.1601C3.54433 21.0239 3.76556 20.9008 3.99365 20.7914C3.10617 18.1914 3.33742 15.1478 4.19364 12.7572C4.7405 11.2197 5.60923 9.76665 6.80295 8.79792C7.59043 8.15731 8.52791 7.73545 9.55288 7.6542C10.0029 5.51988 11.2653 3.7543 12.9059 2.47933ZM23.4369 7.81357V7.78232L23.4307 7.62608C23.3865 6.81118 23.2244 6.00699 22.9494 5.23864C22.7574 4.65704 22.4259 4.13132 21.9838 3.70743C21.5223 3.3055 20.9233 3.09728 20.312 3.12619C18.3334 3.11712 16.4062 3.75587 14.8246 4.94489C13.3747 6.07299 12.4997 7.60108 12.4997 9.37603C12.4995 9.62347 12.4405 9.86733 12.3277 10.0875C12.2148 10.3077 12.0513 10.498 11.8505 10.6426C11.6497 10.7872 11.4175 10.8821 11.1728 10.9194C10.9282 10.9568 10.6782 10.9354 10.4435 10.8572C9.856 10.6635 9.33101 10.7729 8.77165 11.2229C8.15917 11.7228 7.56231 12.6103 7.13419 13.8072C6.26234 16.2509 6.35296 19.2102 7.54981 21.0101C7.72074 21.2665 7.81206 21.5676 7.8123 21.8757H10.156C12.0207 21.8757 13.8091 22.6165 15.1277 23.9351C16.4463 25.2537 17.1871 27.042 17.1871 28.9068V29.9536C18.2296 30.3222 19.1082 31.0475 19.6677 32.0012C20.2272 32.9549 20.4315 34.0758 20.2445 35.1656C20.0575 36.2554 19.4913 37.244 18.6459 37.9567C17.8005 38.6694 16.7303 39.0603 15.6246 39.0603C14.5189 39.0603 13.4487 38.6694 12.6033 37.9567C11.7579 37.244 11.1917 36.2554 11.0047 35.1656C10.8177 34.0758 11.0221 32.9549 11.5815 32.0012C12.141 31.0475 13.0196 30.3222 14.0621 29.9536V28.9068C14.0621 26.7506 12.3122 25.0006 10.156 25.0006H4.68738C4.50058 25.0003 4.31536 24.9664 4.14052 24.9006L4.13115 24.9194C3.51241 26.1537 3.12492 28.2037 3.12492 31.2505C3.12492 33.9348 4.10927 35.4472 5.11862 36.3128C6.20297 37.2441 7.40606 37.5003 7.8123 37.5003C8.22669 37.5003 8.62411 37.6649 8.91713 37.958C9.21015 38.251 9.37476 38.6484 9.37476 39.0628C9.37476 40.2127 9.99975 42.2221 11.3747 43.947C12.7153 45.6189 14.6434 46.8751 17.1871 46.8751C18.937 46.8751 20.5057 45.897 21.7182 44.6251C22.3151 44.0002 22.7807 43.3533 23.0838 42.8221C23.2214 42.5863 23.3395 42.3396 23.4369 42.0846V17.1883H20.0464C19.6778 18.2308 18.9525 19.1095 17.9988 19.6689C17.0451 20.2284 15.9242 20.4327 14.8344 20.2457C13.7446 20.0588 12.756 19.4925 12.0433 18.6471C11.3306 17.8017 10.9397 16.7316 10.9397 15.6259C10.9397 14.5201 11.3306 13.45 12.0433 12.6046C12.756 11.7592 13.7446 11.193 14.8344 11.006C15.9242 10.819 17.0451 11.0233 17.9988 11.5828C18.9525 12.1423 19.6778 13.0209 20.0464 14.0634H23.4369V7.81357ZM26.5618 39.0597V42.0814L26.5993 42.1846C26.6577 42.3408 26.7618 42.5523 26.9118 42.8189C27.2212 43.3502 27.6837 43.997 28.2774 44.622C29.493 45.8939 31.0648 46.872 32.8117 46.872C35.3554 46.872 37.2834 45.6157 38.624 43.9439C39.999 42.2189 40.624 40.2096 40.624 39.0597C40.624 38.6453 40.7886 38.2478 41.0816 37.9548C41.3746 37.6618 41.772 37.4972 42.1864 37.4972C42.5927 37.4972 43.7958 37.2409 44.8801 36.3097C45.8895 35.4441 46.8738 33.9317 46.8738 31.2473C46.8738 28.2006 46.4832 26.1537 45.8676 24.9163C45.6646 24.4537 45.3408 24.0543 44.9301 23.76C44.578 23.5357 44.1661 23.4234 43.7489 23.4382C43.4663 23.438 43.189 23.3612 42.9465 23.216C42.7041 23.0707 42.5056 22.8624 42.3722 22.6132C42.2388 22.364 42.1755 22.0834 42.189 21.8011C42.2025 21.5188 42.2924 21.2454 42.4489 21.0101C43.6489 19.2102 43.7364 16.2509 42.8645 13.8072C42.4364 12.6103 41.8396 11.7197 41.2271 11.2229C40.6677 10.7729 40.1427 10.6604 39.5552 10.8572C39.3205 10.9354 39.0705 10.9568 38.8259 10.9194C38.5813 10.8821 38.349 10.7872 38.1483 10.6426C37.9475 10.498 37.7839 10.3077 37.6711 10.0875C37.5582 9.86733 37.4992 9.62347 37.4991 9.37603C37.4991 7.60108 36.6241 6.07299 35.171 4.94489C33.5903 3.75651 31.6643 3.1178 29.6867 3.12619C29.0754 3.09728 28.4765 3.3055 28.0149 3.70743C27.5717 4.13097 27.2391 4.65672 27.0462 5.23864C26.7498 6.05519 26.5863 6.91398 26.5618 7.78232V35.9379H28.9055C31.0617 35.9379 32.8117 34.1879 32.8117 32.0317V26.2975C31.7692 25.9289 30.8905 25.2036 30.3311 24.2499C29.7716 23.2962 29.5673 22.1753 29.7543 21.0855C29.9412 19.9957 30.5075 19.0071 31.3529 18.2944C32.1983 17.5817 33.2684 17.1908 34.3741 17.1908C35.4799 17.1908 36.55 17.5817 37.3954 18.2944C38.2408 19.0071 38.807 19.9957 38.994 21.0855C39.181 22.1753 38.9767 23.2962 38.4172 24.2499C37.8577 25.2036 36.9791 25.9289 35.9366 26.2975V32.0317C35.9366 33.8965 35.1958 35.6848 33.8772 37.0034C32.5587 38.322 30.7703 39.0628 28.9055 39.0628L26.5618 39.0597ZM14.0621 15.6259C14.0621 16.0403 14.2268 16.4377 14.5198 16.7307C14.8128 17.0237 15.2102 17.1883 15.6246 17.1883C16.039 17.1883 16.4364 17.0237 16.7294 16.7307C17.0224 16.4377 17.1871 16.0403 17.1871 15.6259C17.1871 15.2115 17.0224 14.8141 16.7294 14.521C16.4364 14.228 16.039 14.0634 15.6246 14.0634C15.2102 14.0634 14.8128 14.228 14.5198 14.521C14.2268 14.8141 14.0621 15.2115 14.0621 15.6259ZM34.3741 23.4382C34.7885 23.4382 35.1859 23.2736 35.479 22.9805C35.772 22.6875 35.9366 22.2901 35.9366 21.8757C35.9366 21.4613 35.772 21.0639 35.479 20.7709C35.1859 20.4779 34.7885 20.3133 34.3741 20.3133C33.9597 20.3133 33.5623 20.4779 33.2693 20.7709C32.9763 21.0639 32.8117 21.4613 32.8117 21.8757C32.8117 22.2901 32.9763 22.6875 33.2693 22.9805C33.5623 23.2736 33.9597 23.4382 34.3741 23.4382ZM15.6246 32.8129C15.2102 32.8129 14.8128 32.9776 14.5198 33.2706C14.2268 33.5636 14.0621 33.961 14.0621 34.3754C14.0621 34.7898 14.2268 35.1872 14.5198 35.4802C14.8128 35.7732 15.2102 35.9379 15.6246 35.9379C16.039 35.9379 16.4364 35.7732 16.7294 35.4802C17.0224 35.1872 17.1871 34.7898 17.1871 34.3754C17.1871 33.961 17.0224 33.5636 16.7294 33.2706C16.4364 32.9776 16.039 32.8129 15.6246 32.8129Z"/>
</mask>
<path d="M12.9059 2.47933C15.036 0.863283 17.6383 -0.00746364 20.312 0.00126961C21.2351 -0.0185666 22.1483 0.194317 22.9675 0.620292C23.7867 1.04627 24.4855 1.67162 24.9994 2.43871C25.5133 1.67162 26.212 1.04627 27.0312 0.620292C27.8504 0.194317 28.7636 -0.0185666 29.6867 0.00126961C32.3604 -0.00746364 34.9628 0.863283 37.0928 2.47933C38.7334 3.7543 39.999 5.51988 40.4459 7.6542C41.4708 7.73232 42.4083 8.15731 43.1958 8.79792C44.3895 9.76665 45.2582 11.2197 45.8051 12.7572C46.6613 15.1478 46.8926 18.1946 46.0051 20.7882C46.2301 20.8945 46.4509 21.0195 46.6676 21.1632C47.5269 21.7351 48.18 22.5538 48.6613 23.5194C49.6081 25.41 49.9987 28.0474 49.9987 31.2505C49.9987 34.816 48.6394 37.2097 46.9144 38.6878C45.9594 39.5039 44.8341 40.0964 43.6208 40.4221C43.3083 42.1658 42.4333 44.1845 41.0615 45.897C39.2803 48.1313 36.5178 50 32.8117 50C29.8742 50 27.5368 48.375 26.0181 46.7813C25.6535 46.4021 25.3133 46.0003 24.9994 45.5782C24.6854 46.0003 24.3452 46.4021 23.9806 46.7813C22.4619 48.375 20.1276 50 17.1871 50C13.4809 50 10.7216 48.1313 8.93727 45.897C7.65562 44.3048 6.77761 42.4266 6.37796 40.4221C5.16465 40.0964 4.03938 39.5039 3.0843 38.6878C1.35934 37.2097 0 34.8129 0 31.2505C0 28.0474 0.39374 25.4069 1.33747 23.5194C1.78224 22.5709 2.47008 21.7569 3.33117 21.1601C3.54433 21.0239 3.76556 20.9008 3.99365 20.7914C3.10617 18.1914 3.33742 15.1478 4.19364 12.7572C4.7405 11.2197 5.60923 9.76665 6.80295 8.79792C7.59043 8.15731 8.52791 7.73545 9.55288 7.6542C10.0029 5.51988 11.2653 3.7543 12.9059 2.47933ZM23.4369 7.81357V7.78232L23.4307 7.62608C23.3865 6.81118 23.2244 6.00699 22.9494 5.23864C22.7574 4.65704 22.4259 4.13132 21.9838 3.70743C21.5223 3.3055 20.9233 3.09728 20.312 3.12619C18.3334 3.11712 16.4062 3.75587 14.8246 4.94489C13.3747 6.07299 12.4997 7.60108 12.4997 9.37603C12.4995 9.62347 12.4405 9.86733 12.3277 10.0875C12.2148 10.3077 12.0513 10.498 11.8505 10.6426C11.6497 10.7872 11.4175 10.8821 11.1728 10.9194C10.9282 10.9568 10.6782 10.9354 10.4435 10.8572C9.856 10.6635 9.33101 10.7729 8.77165 11.2229C8.15917 11.7228 7.56231 12.6103 7.13419 13.8072C6.26234 16.2509 6.35296 19.2102 7.54981 21.0101C7.72074 21.2665 7.81206 21.5676 7.8123 21.8757H10.156C12.0207 21.8757 13.8091 22.6165 15.1277 23.9351C16.4463 25.2537 17.1871 27.042 17.1871 28.9068V29.9536C18.2296 30.3222 19.1082 31.0475 19.6677 32.0012C20.2272 32.9549 20.4315 34.0758 20.2445 35.1656C20.0575 36.2554 19.4913 37.244 18.6459 37.9567C17.8005 38.6694 16.7303 39.0603 15.6246 39.0603C14.5189 39.0603 13.4487 38.6694 12.6033 37.9567C11.7579 37.244 11.1917 36.2554 11.0047 35.1656C10.8177 34.0758 11.0221 32.9549 11.5815 32.0012C12.141 31.0475 13.0196 30.3222 14.0621 29.9536V28.9068C14.0621 26.7506 12.3122 25.0006 10.156 25.0006H4.68738C4.50058 25.0003 4.31536 24.9664 4.14052 24.9006L4.13115 24.9194C3.51241 26.1537 3.12492 28.2037 3.12492 31.2505C3.12492 33.9348 4.10927 35.4472 5.11862 36.3128C6.20297 37.2441 7.40606 37.5003 7.8123 37.5003C8.22669 37.5003 8.62411 37.6649 8.91713 37.958C9.21015 38.251 9.37476 38.6484 9.37476 39.0628C9.37476 40.2127 9.99975 42.2221 11.3747 43.947C12.7153 45.6189 14.6434 46.8751 17.1871 46.8751C18.937 46.8751 20.5057 45.897 21.7182 44.6251C22.3151 44.0002 22.7807 43.3533 23.0838 42.8221C23.2214 42.5863 23.3395 42.3396 23.4369 42.0846V17.1883H20.0464C19.6778 18.2308 18.9525 19.1095 17.9988 19.6689C17.0451 20.2284 15.9242 20.4327 14.8344 20.2457C13.7446 20.0588 12.756 19.4925 12.0433 18.6471C11.3306 17.8017 10.9397 16.7316 10.9397 15.6259C10.9397 14.5201 11.3306 13.45 12.0433 12.6046C12.756 11.7592 13.7446 11.193 14.8344 11.006C15.9242 10.819 17.0451 11.0233 17.9988 11.5828C18.9525 12.1423 19.6778 13.0209 20.0464 14.0634H23.4369V7.81357ZM26.5618 39.0597V42.0814L26.5993 42.1846C26.6577 42.3408 26.7618 42.5523 26.9118 42.8189C27.2212 43.3502 27.6837 43.997 28.2774 44.622C29.493 45.8939 31.0648 46.872 32.8117 46.872C35.3554 46.872 37.2834 45.6157 38.624 43.9439C39.999 42.2189 40.624 40.2096 40.624 39.0597C40.624 38.6453 40.7886 38.2478 41.0816 37.9548C41.3746 37.6618 41.772 37.4972 42.1864 37.4972C42.5927 37.4972 43.7958 37.2409 44.8801 36.3097C45.8895 35.4441 46.8738 33.9317 46.8738 31.2473C46.8738 28.2006 46.4832 26.1537 45.8676 24.9163C45.6646 24.4537 45.3408 24.0543 44.9301 23.76C44.578 23.5357 44.1661 23.4234 43.7489 23.4382C43.4663 23.438 43.189 23.3612 42.9465 23.216C42.7041 23.0707 42.5056 22.8624 42.3722 22.6132C42.2388 22.364 42.1755 22.0834 42.189 21.8011C42.2025 21.5188 42.2924 21.2454 42.4489 21.0101C43.6489 19.2102 43.7364 16.2509 42.8645 13.8072C42.4364 12.6103 41.8396 11.7197 41.2271 11.2229C40.6677 10.7729 40.1427 10.6604 39.5552 10.8572C39.3205 10.9354 39.0705 10.9568 38.8259 10.9194C38.5813 10.8821 38.349 10.7872 38.1483 10.6426C37.9475 10.498 37.7839 10.3077 37.6711 10.0875C37.5582 9.86733 37.4992 9.62347 37.4991 9.37603C37.4991 7.60108 36.6241 6.07299 35.171 4.94489C33.5903 3.75651 31.6643 3.1178 29.6867 3.12619C29.0754 3.09728 28.4765 3.3055 28.0149 3.70743C27.5717 4.13097 27.2391 4.65672 27.0462 5.23864C26.7498 6.05519 26.5863 6.91398 26.5618 7.78232V35.9379H28.9055C31.0617 35.9379 32.8117 34.1879 32.8117 32.0317V26.2975C31.7692 25.9289 30.8905 25.2036 30.3311 24.2499C29.7716 23.2962 29.5673 22.1753 29.7543 21.0855C29.9412 19.9957 30.5075 19.0071 31.3529 18.2944C32.1983 17.5817 33.2684 17.1908 34.3741 17.1908C35.4799 17.1908 36.55 17.5817 37.3954 18.2944C38.2408 19.0071 38.807 19.9957 38.994 21.0855C39.181 22.1753 38.9767 23.2962 38.4172 24.2499C37.8577 25.2036 36.9791 25.9289 35.9366 26.2975V32.0317C35.9366 33.8965 35.1958 35.6848 33.8772 37.0034C32.5587 38.322 30.7703 39.0628 28.9055 39.0628L26.5618 39.0597ZM14.0621 15.6259C14.0621 16.0403 14.2268 16.4377 14.5198 16.7307C14.8128 17.0237 15.2102 17.1883 15.6246 17.1883C16.039 17.1883 16.4364 17.0237 16.7294 16.7307C17.0224 16.4377 17.1871 16.0403 17.1871 15.6259C17.1871 15.2115 17.0224 14.8141 16.7294 14.521C16.4364 14.228 16.039 14.0634 15.6246 14.0634C15.2102 14.0634 14.8128 14.228 14.5198 14.521C14.2268 14.8141 14.0621 15.2115 14.0621 15.6259ZM34.3741 23.4382C34.7885 23.4382 35.1859 23.2736 35.479 22.9805C35.772 22.6875 35.9366 22.2901 35.9366 21.8757C35.9366 21.4613 35.772 21.0639 35.479 20.7709C35.1859 20.4779 34.7885 20.3133 34.3741 20.3133C33.9597 20.3133 33.5623 20.4779 33.2693 20.7709C32.9763 21.0639 32.8117 21.4613 32.8117 21.8757C32.8117 22.2901 32.9763 22.6875 33.2693 22.9805C33.5623 23.2736 33.9597 23.4382 34.3741 23.4382ZM15.6246 32.8129C15.2102 32.8129 14.8128 32.9776 14.5198 33.2706C14.2268 33.5636 14.0621 33.961 14.0621 34.3754C14.0621 34.7898 14.2268 35.1872 14.5198 35.4802C14.8128 35.7732 15.2102 35.9379 15.6246 35.9379C16.039 35.9379 16.4364 35.7732 16.7294 35.4802C17.0224 35.1872 17.1871 34.7898 17.1871 34.3754C17.1871 33.961 17.0224 33.5636 16.7294 33.2706C16.4364 32.9776 16.039 32.8129 15.6246 32.8129Z" fill="black" stroke="black" stroke-width="2" mask="url(#path-1-inside-1_2352_517)"/>
</svg>
