<svg width="50" height="50" viewBox="0 0 50 50" fill="none" xmlns="http://www.w3.org/2000/svg">
<path d="M45.3125 25C45.3125 19.6128 43.1724 14.4462 39.3631 10.6369C35.5538 6.82756 30.3872 4.6875 25 4.6875C19.6128 4.6875 14.4462 6.82756 10.6369 10.6369C6.82756 14.4462 4.6875 19.6128 4.6875 25C4.6875 30.3872 6.82756 35.5538 10.6369 39.3631C14.4462 43.1724 19.6128 45.3125 25 45.3125C30.3872 45.3125 35.5538 43.1724 39.3631 39.3631C43.1724 35.5538 45.3125 30.3872 45.3125 25ZM0 25C0 18.3696 2.63392 12.0107 7.32233 7.32233C12.0107 2.63392 18.3696 0 25 0C31.6304 0 37.9893 2.63392 42.6777 7.32233C47.3661 12.0107 50 18.3696 50 25C50 31.6304 47.3661 37.9893 42.6777 42.6777C37.9893 47.3661 31.6304 50 25 50C18.3696 50 12.0107 47.3661 7.32233 42.6777C2.63392 37.9893 0 31.6304 0 25ZM17.3438 31.0645C18.8281 32.666 21.3672 34.375 25 34.375C28.6328 34.375 31.1719 32.666 32.6562 31.0645C33.5352 30.1172 35.0195 30.0488 35.9668 30.9277C36.9141 31.8066 36.9824 33.291 36.1035 34.2383C33.9551 36.5625 30.2441 39.0625 25.0098 39.0625C19.7754 39.0625 16.0547 36.5723 13.916 34.2383C13.0371 33.291 13.0957 31.8066 14.0527 30.9277C15.0098 30.0488 16.4844 30.1074 17.3633 31.0645H17.3438ZM14.1016 20.3125C14.1016 19.4837 14.4308 18.6888 15.0169 18.1028C15.6029 17.5167 16.3978 17.1875 17.2266 17.1875C18.0554 17.1875 18.8502 17.5167 19.4363 18.1028C20.0223 18.6888 20.3516 19.4837 20.3516 20.3125C20.3516 21.1413 20.0223 21.9362 19.4363 22.5222C18.8502 23.1083 18.0554 23.4375 17.2266 23.4375C16.3978 23.4375 15.6029 23.1083 15.0169 22.5222C14.4308 21.9362 14.1016 21.1413 14.1016 20.3125ZM32.8516 17.1875C33.6804 17.1875 34.4752 17.5167 35.0613 18.1028C35.6473 18.6888 35.9766 19.4837 35.9766 20.3125C35.9766 21.1413 35.6473 21.9362 35.0613 22.5222C34.4752 23.1083 33.6804 23.4375 32.8516 23.4375C32.0228 23.4375 31.2279 23.1083 30.6419 22.5222C30.0558 21.9362 29.7266 21.1413 29.7266 20.3125C29.7266 19.4837 30.0558 18.6888 30.6419 18.1028C31.2279 17.5167 32.0228 17.1875 32.8516 17.1875Z" fill="black"/>
</svg>
