<svg width="102" height="102" viewBox="0 0 102 102" fill="none" xmlns="http://www.w3.org/2000/svg">
<g filter="url(#filter0_d_2370_568)">
<path d="M63.75 34H63.7925M12.75 25.5C12.75 22.1185 14.0933 18.8755 16.4844 16.4844C18.8755 14.0933 22.1185 12.75 25.5 12.75H76.5C79.8815 12.75 83.1245 14.0933 85.5156 16.4844C87.9067 18.8755 89.25 22.1185 89.25 25.5V76.5C89.25 79.8815 87.9067 83.1245 85.5156 85.5156C83.1245 87.9067 79.8815 89.25 76.5 89.25H25.5C22.1185 89.25 18.8755 87.9067 16.4844 85.5156C14.0933 83.1245 12.75 79.8815 12.75 76.5V25.5Z" stroke="black" stroke-width="4.16667" stroke-linecap="round" stroke-linejoin="round"/>
<path d="M12.75 68L34 46.75C37.944 42.9548 42.806 42.9548 46.75 46.75L68 68" stroke="black" stroke-width="4.16667" stroke-linecap="round" stroke-linejoin="round"/>
<path d="M59.5 59.4999L63.75 55.2499C67.694 51.4547 72.556 51.4547 76.5 55.2499L89.2499 67.9999" stroke="black" stroke-width="4.16667" stroke-linecap="round" stroke-linejoin="round"/>
</g>
<defs>
<filter id="filter0_d_2370_568" x="-4" y="0" width="110" height="110" filterUnits="userSpaceOnUse" color-interpolation-filters="sRGB">
<feFlood flood-opacity="0" result="BackgroundImageFix"/>
<feColorMatrix in="SourceAlpha" type="matrix" values="0 0 0 0 0 0 0 0 0 0 0 0 0 0 0 0 0 0 127 0" result="hardAlpha"/>
<feOffset dy="4"/>
<feGaussianBlur stdDeviation="2"/>
<feComposite in2="hardAlpha" operator="out"/>
<feColorMatrix type="matrix" values="0 0 0 0 0 0 0 0 0 0 0 0 0 0 0 0 0 0 0.25 0"/>
<feBlend mode="normal" in2="BackgroundImageFix" result="effect1_dropShadow_2370_568"/>
<feBlend mode="normal" in="SourceGraphic" in2="effect1_dropShadow_2370_568" result="shape"/>
</filter>
</defs>
</svg>
