<svg width="59" height="54" viewBox="0 0 59 54" fill="none" xmlns="http://www.w3.org/2000/svg">
<path d="M7.03221 19.0003C7.33614 19.0005 7.63343 19.0892 7.88767 19.2558C8.14192 19.4223 8.34208 19.6594 8.46365 19.9379L13.9332 32.4396C14.0227 32.6287 14.0734 32.8339 14.0822 33.043C14.0911 33.2521 14.0578 33.4608 13.9844 33.6568C13.911 33.8527 13.799 34.032 13.655 34.1838C13.5111 34.3357 13.3381 34.4571 13.1463 34.5408C12.9545 34.6246 12.7479 34.669 12.5386 34.6713C12.3294 34.6737 12.1218 34.634 11.9282 34.5547C11.7346 34.4753 11.5589 34.3578 11.4115 34.2093C11.2641 34.0607 11.1481 33.8841 11.0703 33.6898L10.1123 31.502H3.95366L2.99572 33.6898C2.82183 34.0568 2.51187 34.3418 2.13152 34.4842C1.75117 34.6266 1.33031 34.6154 0.95811 34.4528C0.585907 34.2903 0.291603 33.9893 0.137553 33.6135C-0.0164971 33.2377 -0.0181909 32.8167 0.132831 32.4396L5.60233 19.9379C5.72379 19.6596 5.92371 19.4227 6.17765 19.2562C6.43159 19.0897 6.72854 19.0008 7.03221 19.0003ZM8.74494 28.3766L7.03221 24.462L5.31947 28.3766H8.74494ZM1.56271 40.8783C1.14826 40.8783 0.750773 41.0429 0.457708 41.336C0.164642 41.6291 0 42.0265 0 42.441C0 42.8555 0.164642 43.2529 0.457708 43.546C0.750773 43.8391 1.14826 44.0037 1.56271 44.0037H39.0678C39.4823 44.0037 39.8798 43.8391 40.1728 43.546C40.4659 43.2529 40.6305 42.8555 40.6305 42.441C40.6305 42.0265 40.4659 41.6291 40.1728 41.336C39.8798 41.0429 39.4823 40.8783 39.0678 40.8783H1.56271ZM1.56271 50.2546C1.14826 50.2546 0.750773 50.4192 0.457708 50.7123C0.164642 51.0053 0 51.4028 0 51.8173C0 52.2317 0.164642 52.6292 0.457708 52.9223C0.750773 53.2154 1.14826 53.38 1.56271 53.38H39.0678C39.4823 53.38 39.8798 53.2154 40.1728 52.9223C40.4659 52.6292 40.6305 52.2317 40.6305 51.8173C40.6305 51.4028 40.4659 51.0053 40.1728 50.7123C39.8798 50.4192 39.4823 50.2546 39.0678 50.2546H1.56271ZM15.6271 20.563C15.6271 20.1486 15.7918 19.7511 16.0848 19.458C16.3779 19.1649 16.7754 19.0003 17.1898 19.0003H21.0966C21.955 19.0001 22.797 19.2357 23.5308 19.6812C24.2645 20.1268 24.8618 20.7652 25.2576 21.5269C25.6534 22.2887 25.8324 23.1444 25.7752 24.001C25.718 24.8575 25.4267 25.6818 24.9331 26.3841C25.659 27.0081 26.1765 27.8394 26.416 28.7662C26.6556 29.693 26.6056 30.6709 26.273 31.5685C25.9403 32.4661 25.3409 33.2403 24.5552 33.7872C23.7695 34.334 22.8352 34.6272 21.878 34.6274H17.1898C16.7754 34.6274 16.3779 34.4628 16.0848 34.1697C15.7918 33.8767 15.6271 33.4792 15.6271 33.0647V20.563ZM18.7526 28.3766V31.502H21.878C22.2924 31.502 22.6899 31.3374 22.983 31.0443C23.2761 30.7512 23.4407 30.3538 23.4407 29.9393C23.4407 29.5248 23.2761 29.1274 22.983 28.8343C22.6899 28.5412 22.2924 28.3766 21.878 28.3766H18.7526ZM18.7526 25.2512H21.0966C21.5111 25.2512 21.9086 25.0865 22.2016 24.7934C22.4947 24.5004 22.6593 24.1029 22.6593 23.6884C22.6593 23.274 22.4947 22.8765 22.2016 22.5834C21.9086 22.2904 21.5111 22.1257 21.0966 22.1257H18.7526V25.2512ZM31.2543 26.8139C31.2543 24.9761 31.7137 23.7978 32.27 23.1087C32.516 22.7943 32.832 22.5417 33.1928 22.3711C33.5537 22.2004 33.9494 22.1164 34.3484 22.1257C35.3798 22.1257 36.2706 22.6258 36.855 23.9666C36.9364 24.1558 37.0543 24.327 37.2021 24.4704C37.3498 24.6138 37.5245 24.7266 37.716 24.8023C37.9075 24.878 38.112 24.9151 38.3179 24.9115C38.5238 24.9079 38.7269 24.8637 38.9156 24.7813C39.1044 24.6989 39.2749 24.5801 39.4176 24.4316C39.5602 24.2831 39.6721 24.1079 39.7468 23.916C39.8215 23.7241 39.8575 23.5193 39.8529 23.3135C39.8482 23.1076 39.8028 22.9047 39.7195 22.7164C38.6881 20.3536 36.7456 19.0003 34.3469 19.0003C33.4822 18.9914 32.6269 19.1797 31.846 19.5509C31.065 19.9222 30.379 20.4666 29.84 21.1428C28.7117 22.5383 28.1288 24.4854 28.1288 26.8139C28.1288 29.1423 28.7117 31.0895 29.84 32.485C30.3791 33.1613 31.0654 33.7059 31.8467 34.0771C32.6279 34.4484 33.4835 34.6366 34.3484 34.6274C36.7472 34.6274 38.6896 33.2741 39.721 30.9113C39.8044 30.723 39.8497 30.5201 39.8544 30.3143C39.8591 30.1084 39.8231 29.9037 39.7484 29.7118C39.6737 29.5199 39.5618 29.3447 39.4191 29.1961C39.2765 29.0476 39.1059 28.9288 38.9172 28.8464C38.7285 28.7641 38.5253 28.7198 38.3195 28.7162C38.1136 28.7126 37.909 28.7497 37.7175 28.8254C37.526 28.9011 37.3514 29.0139 37.2037 29.1574C37.0559 29.3008 36.938 29.472 36.8566 29.6611C36.2706 31.0035 35.3798 31.502 34.3484 31.502C33.9496 31.5111 33.5542 31.427 33.1937 31.2563C32.8331 31.0857 32.5174 30.8332 32.2716 30.5191C31.7153 29.8315 31.2543 28.6516 31.2543 26.8139Z" fill="black"/>
<path d="M46.5 3.125C41.3242 3.125 37.125 7.32422 37.125 12.5C37.125 17.6758 41.3242 21.875 46.5 21.875C51.6758 21.875 55.875 17.6758 55.875 12.5C55.875 7.32422 51.6758 3.125 46.5 3.125Z" stroke="black" stroke-width="2.13" stroke-miterlimit="10"/>
<path d="M46.5 6.25V13.2812H51.1875" stroke="black" stroke-width="2.13" stroke-linecap="round" stroke-linejoin="round"/>
</svg>
