<svg width="60" height="55" viewBox="0 0 60 55" fill="none" xmlns="http://www.w3.org/2000/svg">
<path d="M7.03221 20.0003C7.33614 20.0005 7.63343 20.0892 7.88767 20.2558C8.14192 20.4223 8.34208 20.6594 8.46365 20.9379L13.9332 33.4396C14.0227 33.6287 14.0734 33.8339 14.0822 34.043C14.0911 34.2521 14.0578 34.4608 13.9844 34.6568C13.911 34.8527 13.799 35.032 13.655 35.1838C13.5111 35.3357 13.3381 35.4571 13.1463 35.5408C12.9545 35.6246 12.7479 35.669 12.5386 35.6713C12.3294 35.6737 12.1218 35.634 11.9282 35.5547C11.7346 35.4753 11.5589 35.3578 11.4115 35.2093C11.2641 35.0607 11.1481 34.8841 11.0703 34.6898L10.1123 32.502H3.95366L2.99572 34.6898C2.82183 35.0568 2.51187 35.3418 2.13152 35.4842C1.75117 35.6266 1.33031 35.6154 0.95811 35.4528C0.585907 35.2903 0.291603 34.9893 0.137553 34.6135C-0.0164971 34.2377 -0.0181909 33.8167 0.132831 33.4396L5.60233 20.9379C5.72379 20.6596 5.92371 20.4227 6.17765 20.2562C6.43159 20.0897 6.72854 20.0008 7.03221 20.0003ZM8.74494 29.3766L7.03221 25.462L5.31947 29.3766H8.74494ZM1.56271 41.8783C1.14826 41.8783 0.750773 42.0429 0.457708 42.336C0.164642 42.6291 0 43.0265 0 43.441C0 43.8555 0.164642 44.2529 0.457708 44.546C0.750773 44.8391 1.14826 45.0037 1.56271 45.0037H39.0678C39.4823 45.0037 39.8798 44.8391 40.1728 44.546C40.4659 44.2529 40.6305 43.8555 40.6305 43.441C40.6305 43.0265 40.4659 42.6291 40.1728 42.336C39.8798 42.0429 39.4823 41.8783 39.0678 41.8783H1.56271ZM1.56271 51.2546C1.14826 51.2546 0.750773 51.4192 0.457708 51.7123C0.164642 52.0053 0 52.4028 0 52.8173C0 53.2317 0.164642 53.6292 0.457708 53.9223C0.750773 54.2154 1.14826 54.38 1.56271 54.38H39.0678C39.4823 54.38 39.8798 54.2154 40.1728 53.9223C40.4659 53.6292 40.6305 53.2317 40.6305 52.8173C40.6305 52.4028 40.4659 52.0053 40.1728 51.7123C39.8798 51.4192 39.4823 51.2546 39.0678 51.2546H1.56271ZM15.6271 21.563C15.6271 21.1486 15.7918 20.7511 16.0848 20.458C16.3779 20.1649 16.7754 20.0003 17.1898 20.0003H21.0966C21.955 20.0001 22.797 20.2357 23.5308 20.6812C24.2645 21.1268 24.8618 21.7652 25.2576 22.5269C25.6534 23.2887 25.8324 24.1444 25.7752 25.001C25.718 25.8575 25.4267 26.6818 24.9331 27.3841C25.659 28.0081 26.1765 28.8394 26.416 29.7662C26.6556 30.693 26.6056 31.6709 26.273 32.5685C25.9403 33.4661 25.3409 34.2403 24.5552 34.7872C23.7695 35.334 22.8352 35.6272 21.878 35.6274H17.1898C16.7754 35.6274 16.3779 35.4628 16.0848 35.1697C15.7918 34.8767 15.6271 34.4792 15.6271 34.0647V21.563ZM18.7526 29.3766V32.502H21.878C22.2924 32.502 22.6899 32.3374 22.983 32.0443C23.2761 31.7512 23.4407 31.3538 23.4407 30.9393C23.4407 30.5248 23.2761 30.1274 22.983 29.8343C22.6899 29.5412 22.2924 29.3766 21.878 29.3766H18.7526ZM18.7526 26.2512H21.0966C21.5111 26.2512 21.9086 26.0865 22.2016 25.7934C22.4947 25.5004 22.6593 25.1029 22.6593 24.6884C22.6593 24.274 22.4947 23.8765 22.2016 23.5834C21.9086 23.2904 21.5111 23.1257 21.0966 23.1257H18.7526V26.2512ZM31.2543 27.8139C31.2543 25.9761 31.7137 24.7978 32.27 24.1087C32.516 23.7943 32.832 23.5417 33.1928 23.3711C33.5537 23.2004 33.9494 23.1164 34.3484 23.1257C35.3798 23.1257 36.2706 23.6258 36.855 24.9666C36.9364 25.1558 37.0543 25.327 37.2021 25.4704C37.3498 25.6138 37.5245 25.7266 37.716 25.8023C37.9075 25.878 38.112 25.9151 38.3179 25.9115C38.5238 25.9079 38.7269 25.8637 38.9156 25.7813C39.1044 25.6989 39.2749 25.5801 39.4176 25.4316C39.5602 25.2831 39.6721 25.1079 39.7468 24.916C39.8215 24.7241 39.8575 24.5193 39.8529 24.3135C39.8482 24.1076 39.8028 23.9047 39.7195 23.7164C38.6881 21.3536 36.7456 20.0003 34.3469 20.0003C33.4822 19.9914 32.6269 20.1797 31.846 20.5509C31.065 20.9222 30.379 21.4666 29.84 22.1428C28.7117 23.5383 28.1288 25.4854 28.1288 27.8139C28.1288 30.1423 28.7117 32.0895 29.84 33.485C30.3791 34.1613 31.0654 34.7059 31.8467 35.0771C32.6279 35.4484 33.4835 35.6366 34.3484 35.6274C36.7472 35.6274 38.6896 34.2741 39.721 31.9113C39.8044 31.723 39.8497 31.5201 39.8544 31.3143C39.8591 31.1084 39.8231 30.9037 39.7484 30.7118C39.6737 30.5199 39.5618 30.3447 39.4191 30.1961C39.2765 30.0476 39.1059 29.9288 38.9172 29.8464C38.7285 29.7641 38.5253 29.7198 38.3195 29.7162C38.1136 29.7126 37.909 29.7497 37.7175 29.8254C37.526 29.9011 37.3514 30.0139 37.2037 30.1574C37.0559 30.3008 36.938 30.472 36.8566 30.6611C36.2706 32.0035 35.3798 32.502 34.3484 32.502C33.9496 32.5111 33.5542 32.427 33.1937 32.2563C32.8331 32.0857 32.5174 31.8332 32.2716 31.5191C31.7153 30.8315 31.2543 29.6516 31.2543 27.8139Z" fill="black"/>
<path d="M44.2917 24.1667C44.2917 24.4871 44.419 24.7945 44.6456 25.0211C44.8722 25.2477 45.1795 25.375 45.5 25.375C45.8205 25.375 46.1278 25.2477 46.3544 25.0211C46.581 24.7945 46.7083 24.4871 46.7083 24.1667V15.7083H55.1667C55.4871 15.7083 55.7945 15.581 56.0211 15.3544C56.2477 15.1278 56.375 14.8205 56.375 14.5C56.375 14.1795 56.2477 13.8722 56.0211 13.6456C55.7945 13.419 55.4871 13.2917 55.1667 13.2917H46.7083V4.83333C46.7083 4.51286 46.581 4.20552 46.3544 3.97891C46.1278 3.75231 45.8205 3.625 45.5 3.625C45.1795 3.625 44.8722 3.75231 44.6456 3.97891C44.419 4.20552 44.2917 4.51286 44.2917 4.83333V13.2917H35.8333C35.5129 13.2917 35.2055 13.419 34.9789 13.6456C34.7523 13.8722 34.625 14.1795 34.625 14.5C34.625 14.8205 34.7523 15.1278 34.9789 15.3544C35.2055 15.581 35.5129 15.7083 35.8333 15.7083H44.2917V24.1667Z" fill="black"/>
</svg>
